# xmcd
#
# Track frame offsets:
#	150
#	13574
#	30736
#	58039
#	77956
#	94843
#	109274
#	140217
#	152284
#	165724
#	173478
#	197888
#	213307
#	228132
#	243942
#	256695
#
# Disc length: 3604 seconds
#
# Revision: 1
# Processed by: cddbd v1.5.1PL0 Copyright (c) Steve Scherf et al.
# Submitted via: dBpowerAMP V4.0
#
DISCID=ca0e1210
DTITLE=BJ Hegen Blues band - Lonesome Road
DYEAR=1900
DGENRE=Country
TTITLE0=My Heart´s Crying
TTITLE1=You Know Blues
TTITLE2=The Lonesome Road
TTITLE3=Cracks on the Ceiling
TTITLE4=Tough Times
TTITLE5=Hard Luck And Trouble
TTITLE6=Backdoor Friend
TTITLE7=Shake It Up And Go
TTITLE8=Show That Poor Dog A Bone
TTITLE9=All Night Long
TTITLE10=Driftin´Blues
TTITLE11=the Road Is Rough
TTITLE12=I Got In My Gin
TTITLE13=Sometimes I Cry
TTITLE14=I Think I Heard
TTITLE15=New Automobile Blues
EXTD=
EXTT0=
EXTT1=
EXTT2=
EXTT3=
EXTT4=
EXTT5=
EXTT6=
EXTT7=
EXTT8=
EXTT9=
EXTT10=
EXTT11=
EXTT12=
EXTT13=
EXTT14=
EXTT15=
PLAYORDER=
